<svg id="Layer_1" data-name="Layer 1" xmlns="http://www.w3.org/2000/svg" viewBox="0 0 3.16 9.98"><defs><style>.cls-1{fill:#231f20;}</style></defs><title>bracket</title><path class="cls-1" d="M2.86,10a2,2,0,0,1-1.47-.45A2.23,2.23,0,0,1,1,8V5.87L.23,5.59A.35.35,0,0,1,0,5.25V4.87a.37.37,0,0,1,.23-.35L1,4.24V2.14A3.61,3.61,0,0,1,1.12,1,1.3,1.3,0,0,1,1.66.25,1.9,1.9,0,0,1,2.73,0a.58.58,0,0,1,.33.07.25.25,0,0,1,.1.22.27.27,0,0,1-.09.22.49.49,0,0,1-.21.08l-.5,0a.83.83,0,0,0-.42.13.8.8,0,0,0-.29.43,3.3,3.3,0,0,0-.1,1V4.39a.36.36,0,0,1-.22.34L.49,5v0l.82.3a.33.33,0,0,1,.24.34V8a2.73,2.73,0,0,0,.12,1,.55.55,0,0,0,.4.37,3.47,3.47,0,0,0,.79.12.25.25,0,0,1,.22.09.3.3,0,0,1,.08.2.29.29,0,0,1-.09.21A.25.25,0,0,1,2.86,10Z"/></svg>