<svg width="250" height="150" viewBox="0 0 250 150" fill="none" xmlns="http://www.w3.org/2000/svg">
<g clip-path="url(#clip0_8_2)">
<path d="M71.842 71.3592L79.6794 64.0777L132.19 27.6699V50.2427L95.3542 102.67L79.6794 96.1165L71.842 71.3592Z" fill="#8AB4E2" stroke="#8AB4E2"/>
<path d="M198.024 80.0971L140.027 16.0194H132.19V54.6116L176.863 102.67L198.024 80.0971Z" fill="#93E1E5" stroke="#93E1E5"/>
<path d="M76.0742 101.214L82.8143 97.5728L75.7607 67.7185L67.453 69.102L76.0742 101.214Z" fill="#001C39"/>
<path d="M89.0843 91.8932H84.9226L87.5168 77.9126L130.623 35.6796L89.0843 91.8932Z" fill="#001C39"/>
<path d="M151.784 26.9418L154.918 24.7573L158.053 37.8641L191.441 98.5194H186.268L151.784 42.233V26.9418Z" fill="#001C39"/>
<path d="M155.702 39.3204V26.7325L211.348 87.3787L191.754 97.5728L155.702 39.3204Z" fill="#2390FF"/>
<path d="M150.216 45.8738L132.19 44.4175V131.068L184.701 101.214L150.216 45.8738Z" fill="#2390FF"/>
<path d="M143.162 35.6796L144.573 32.0388L128.271 24.7573L114.948 51.699L130.623 34.9515L143.162 35.6796Z" fill="#2390FF"/>
<path d="M155.702 39.3204V26.7325L211.348 87.3787L191.754 97.5728L155.702 39.3204Z" stroke="#2390FF"/>
<path d="M150.216 45.8738L132.19 44.4175V131.068L184.701 101.214L150.216 45.8738Z" stroke="#2390FF"/>
<path d="M143.162 35.6796L144.573 32.0388L128.271 24.7573L114.948 51.699L130.623 34.9515L143.162 35.6796Z" stroke="#2390FF"/>
<path d="M74.9769 61.8932L131.406 0L144.73 13.835V31.3107L131.406 29.8544L85.1656 90.2913L74.9769 61.8932Z" fill="#002A55"/>
<path d="M52.2484 87.3786L67.1395 70.6311L74.9769 99.7573L52.2484 87.3786Z" fill="#002A55"/>
<path d="M131.406 130.34L84.3818 105.583L131.406 45.8738V130.34Z" fill="#002A55"/>
<path d="M131.406 0L74.9769 61.8932L85.1656 90.2913L131.406 29.8544M131.406 0V29.8544M131.406 0L144.73 13.835V31.3107L131.406 29.8544M67.1395 70.6311L52.2484 87.3786L74.9769 99.7573L67.1395 70.6311ZM84.3818 105.583L131.406 130.34V45.8738L84.3818 105.583Z" stroke="#002A55"/>
<path d="M19.0437 110.858L23.8612 106.084L56.1384 82.2168V97.0146L33.4962 131.383L23.8612 127.087L19.0437 110.858Z" fill="#8AB4E2" stroke="#8AB4E2"/>
<path d="M96.6053 116.586L60.9559 74.5793H56.1384V99.8786L83.5981 131.383L96.6053 116.586Z" fill="#93E1E5" stroke="#93E1E5"/>
<path d="M21.6452 130.429L25.7882 128.042L21.4525 108.471L16.3459 109.378L21.6452 130.429Z" fill="#001C39"/>
<path d="M29.6422 124.319H27.0841L28.6787 115.154L55.1749 87.4676L29.6422 124.319Z" fill="#001C39"/>
<path d="M68.1821 81.7395L70.1091 80.3074L72.0361 88.8997L92.5586 128.663H89.3791L68.1821 91.7637V81.7395Z" fill="#001C39"/>
<path d="M70.5909 89.8544V81.6023L104.795 121.359L92.7513 128.042L70.5909 89.8544Z" fill="#2390FF"/>
<path d="M67.2186 94.1505L56.1384 93.1958V150L88.4156 130.429L67.2186 94.1505Z" fill="#2390FF"/>
<path d="M62.8829 87.4676L63.75 85.0809L53.7296 80.3074L45.5399 97.9692L55.1749 86.9903L62.8829 87.4676Z" fill="#2390FF"/>
<path d="M70.5909 89.8544V81.6023L104.795 121.359L92.7513 128.042L70.5909 89.8544Z" stroke="#2390FF"/>
<path d="M67.2186 94.1505L56.1384 93.1958V150L88.4156 130.429L67.2186 94.1505Z" stroke="#2390FF"/>
<path d="M62.8829 87.4676L63.75 85.0809L53.7296 80.3074L45.5399 97.9692L55.1749 86.9903L62.8829 87.4676Z" stroke="#2390FF"/>
<path d="M20.9707 104.652L55.6566 64.0777L63.8464 73.1472V84.6036L55.6566 83.6489L27.2335 123.269L20.9707 104.652Z" fill="#002A55"/>
<path d="M7 121.359L16.1532 110.38L20.9707 129.474L7 121.359Z" fill="#002A55"/>
<path d="M55.6566 149.523L26.7517 133.293L55.6566 94.1505V149.523Z" fill="#002A55"/>
<path d="M55.6566 64.0777L20.9707 104.652L27.2335 123.269L55.6566 83.6489M55.6566 64.0777V83.6489M55.6566 64.0777L63.8464 73.1472V84.6036L55.6566 83.6489M16.1532 110.38L7 121.359L20.9707 129.474L16.1532 110.38ZM26.7517 133.293L55.6566 149.523V94.1505L26.7517 133.293Z" stroke="#002A55"/>
<path d="M183.126 109.693L186.433 106.375L208.594 89.7896V100.073L193.049 123.956L186.433 120.971L183.126 109.693Z" fill="#8AB4E2" stroke="#8AB4E2"/>
<path d="M236.377 113.673L211.901 84.4822H208.594V102.063L227.447 123.956L236.377 113.673Z" fill="#93E1E5" stroke="#93E1E5"/>
<path d="M184.912 123.293L187.757 121.634L184.78 108.034L181.274 108.664L184.912 123.293Z" fill="#001C39"/>
<path d="M190.403 119.047H188.646L189.741 112.678L207.932 93.4385L190.403 119.047Z" fill="#001C39"/>
<path d="M216.863 89.4579L218.186 88.4628L219.509 94.4337L233.599 122.066H231.416L216.863 96.4239V89.4579Z" fill="#001C39"/>
<path d="M218.517 95.0971V89.3626L242 116.99L233.731 121.634L218.517 95.0971Z" fill="#2390FF"/>
<path d="M216.201 98.0825L208.594 97.4191V136.893L230.754 123.293L216.201 98.0825Z" fill="#2390FF"/>
<path d="M213.224 93.4385L213.82 91.7799L206.94 88.4628L201.317 100.736L207.932 93.1068L213.224 93.4385Z" fill="#2390FF"/>
<path d="M218.517 95.0971V89.3626L242 116.99L233.731 121.634L218.517 95.0971Z" stroke="#2390FF"/>
<path d="M216.201 98.0825L208.594 97.4191V136.893L230.754 123.293L216.201 98.0825Z" stroke="#2390FF"/>
<path d="M213.224 93.4385L213.82 91.7799L206.94 88.4628L201.317 100.736L207.932 93.1068L213.224 93.4385Z" stroke="#2390FF"/>
<path d="M184.449 105.38L208.263 77.1845L213.886 83.4871V91.4482L208.263 90.7848L188.749 118.317L184.449 105.38Z" fill="#002A55"/>
<path d="M174.857 116.99L181.141 109.361L184.449 122.629L174.857 116.99Z" fill="#002A55"/>
<path d="M208.263 136.561L188.418 125.283L208.263 98.0825V136.561Z" fill="#002A55"/>
<path d="M208.263 77.1845L184.449 105.38L188.749 118.317L208.263 90.7848M208.263 77.1845V90.7848M208.263 77.1845L213.886 83.4871V91.4482L208.263 90.7848M181.141 109.361L174.857 116.99L184.449 122.629L181.141 109.361ZM188.418 125.283L208.263 136.561V98.0825L188.418 125.283Z" stroke="#002A55"/>
<g clip-path="url(#clip1_8_2)">
<path d="M5.38096 32.8838H9.79106V33.7564H8.03464V37.8806H7.13748V33.7564H5.38096V32.8838Z" fill="#002A55"/>
<path d="M11.6003 35.7476V32.8838H12.4975V35.7252C12.4975 36.133 12.618 36.4686 12.8592 36.7321C13.1005 36.9957 13.4146 37.1273 13.8016 37.1273C14.1986 37.1273 14.5165 36.9957 14.7552 36.7321C14.9939 36.4686 15.1133 36.133 15.1133 35.7252V32.8838H16.018V35.7476C16.018 36.4289 15.8157 36.9744 15.4111 37.3847C15.0065 37.7948 14.4726 38 13.8091 38C13.1458 38 12.6117 37.7948 12.2072 37.3847C11.8025 36.9745 11.6003 36.4289 11.6003 35.7476V35.7476Z" fill="#002A55"/>
<path d="M19.4254 32.8838H21.966V33.7564H19.4782C19.3172 33.7564 19.1891 33.8024 19.0937 33.8945C18.9983 33.9866 18.9505 34.0946 18.9505 34.2189C18.9505 34.3283 18.9844 34.4276 19.0524 34.5171C19.1202 34.6067 19.2194 34.6663 19.3501 34.6962L21.182 35.1287C21.5438 35.2182 21.8201 35.3885 22.0113 35.6395C22.2022 35.8906 22.2977 36.1678 22.2977 36.4711C22.2977 36.8541 22.1657 37.1846 21.902 37.463C21.6381 37.7415 21.275 37.8806 20.8126 37.8806H18.159V37.0081H20.775C20.9457 37.0081 21.0814 36.9558 21.182 36.8514C21.2825 36.747 21.3328 36.6277 21.3328 36.4935C21.3328 36.3791 21.2951 36.2734 21.2197 36.1765C21.1443 36.0795 21.0388 36.0161 20.903 35.9863L19.0636 35.5537C18.7068 35.4692 18.4367 35.3039 18.2533 35.0577C18.0697 34.8116 17.9781 34.5394 17.9781 34.2411C17.9781 33.8733 18.1063 33.555 18.3625 33.2865C18.6189 33.0181 18.9731 32.8838 19.4255 32.8838H19.4254Z" fill="#002A55"/>
<path d="M24.2049 35.7476V32.8838H25.1021V35.7252C25.1021 36.133 25.2227 36.4686 25.464 36.7321C25.7052 36.9957 26.0192 37.1273 26.4063 37.1273C26.8033 37.1273 27.1212 36.9957 27.3599 36.7321C27.5986 36.4686 27.718 36.133 27.718 35.7252V32.8838H28.6227V35.7476C28.6227 36.4289 28.4204 36.9744 28.0159 37.3847C27.6112 37.7948 27.0773 38 26.4138 38C25.7505 38 25.2164 37.7948 24.8118 37.3847C24.4072 36.9745 24.2049 36.4289 24.2049 35.7476V35.7476Z" fill="#002A55"/>
<path d="M31.7813 37.8806H30.8767V32.8838H33.4398C33.9423 32.8838 34.3494 33.0069 34.6611 33.253C34.9727 33.4991 35.1285 33.841 35.1285 34.2784C35.1285 34.7408 34.9626 35.0889 34.6309 35.3226V35.3449C35.0279 35.4394 35.2264 35.7353 35.2264 36.2324V37.8806H34.3218V36.404C34.3218 36.1952 34.2061 36.0908 33.975 36.0908H31.7812V37.8806H31.7813ZM31.7813 33.7564V35.2555H33.3795C33.6308 35.2555 33.8343 35.1871 33.9901 35.0503C34.1459 34.9137 34.2237 34.7309 34.2237 34.5022C34.2237 34.2784 34.1434 34.0983 33.9826 33.9615C33.8216 33.8248 33.6207 33.7563 33.3795 33.7563H31.7813V33.7564Z" fill="#002A55"/>
<path d="M40.4205 35.7476V32.8838H41.3176V35.7252C41.3176 36.133 41.4382 36.4686 41.6795 36.7321C41.9207 36.9957 42.2348 37.1273 42.6218 37.1273C43.0188 37.1273 43.3367 36.9957 43.5754 36.7321C43.8142 36.4686 43.9336 36.133 43.9336 35.7252V32.8838H44.8382V35.7476C44.8382 36.4289 44.6359 36.9744 44.2314 37.3847C43.8267 37.7948 43.2928 38 42.6293 38C41.966 38 41.4319 37.7948 41.0274 37.3847C40.6227 36.9745 40.4205 36.4289 40.4205 35.7476V35.7476Z" fill="#002A55"/>
<path d="M50.8239 36.4114V32.8838H51.7284V37.8806H50.8239L47.9969 34.1218V37.8806H47.0923V32.8838H48.1477L50.8239 36.4114Z" fill="#002A55"/>
<path d="M54.1181 37.8806V32.8838H55.0228V37.8806H54.1181Z" fill="#002A55"/>
<path d="M59.4855 36.7917L61.129 32.8838H62.1014L59.9605 37.8806H58.9728L56.832 32.8838H57.8195L59.4855 36.7917Z" fill="#002A55"/>
<path d="M67.6649 37.8806H63.858V32.8838H67.6649V33.7564H64.7625V34.8975H67.3859V35.7402H64.7625V37.0081H67.6649V37.8806Z" fill="#002A55"/>
<path d="M70.7481 37.8806H69.8435V32.8838H72.4066C72.9092 32.8838 73.3162 33.0069 73.6279 33.253C73.9395 33.4991 74.0953 33.841 74.0953 34.2784C74.0953 34.7408 73.9295 35.0889 73.5978 35.3226V35.3449C73.9947 35.4394 74.1933 35.7353 74.1933 36.2324V37.8806H73.2886V36.404C73.2886 36.1952 73.1729 36.0908 72.9418 36.0908H70.7481V37.8806H70.7481ZM70.7481 33.7564V35.2555H72.3463C72.5976 35.2555 72.8011 35.1871 72.957 35.0503C73.1127 34.9137 73.1906 34.7309 73.1906 34.5022C73.1906 34.2784 73.1102 34.0983 72.9493 33.9615C72.7884 33.8248 72.5876 33.7563 72.3463 33.7563H70.7481V33.7564Z" fill="#002A55"/>
<path d="M77.6083 32.8838H80.1489V33.7564H77.6611C77.5002 33.7564 77.372 33.8024 77.2767 33.8945C77.1811 33.9866 77.1333 34.0946 77.1333 34.2189C77.1333 34.3283 77.1673 34.4276 77.2352 34.5171C77.3031 34.6067 77.4022 34.6663 77.533 34.6962L79.3649 35.1287C79.7267 35.2182 80.0031 35.3885 80.1941 35.6395C80.3851 35.8906 80.4806 36.1678 80.4806 36.4711C80.4806 36.8541 80.3487 37.1846 80.0848 37.463C79.8209 37.7415 79.4578 37.8806 78.9955 37.8806H76.3419V37.0081H78.9578C79.1287 37.0081 79.2644 36.9558 79.3649 36.8514C79.4653 36.747 79.5156 36.6277 79.5156 36.4935C79.5156 36.3791 79.4779 36.2734 79.4026 36.1765C79.3272 36.0795 79.2217 36.0161 79.086 35.9863L77.2466 35.5537C76.8897 35.4692 76.6196 35.3039 76.4362 35.0577C76.2526 34.8116 76.161 34.5394 76.161 34.2411C76.161 33.8733 76.2891 33.555 76.5454 33.2865C76.8017 33.0181 77.156 32.8838 77.6084 32.8838H77.6083Z" fill="#002A55"/>
<path d="M82.5385 37.8806V32.8838H83.4432V37.8806H82.5385Z" fill="#002A55"/>
<path d="M85.3956 32.8838H89.8057V33.7564H88.0492V37.8806H87.1521V33.7564H85.3956V32.8838Z" fill="#002A55"/>
<path d="M95.1807 32.8838H96.2287L94.163 35.8296V37.8806H93.2584V35.867L91.1929 32.8838H92.2633L93.7183 35.0243L95.1807 32.8838Z" fill="#002A55"/>
<path fill-rule="evenodd" clip-rule="evenodd" d="M14.8647 28.3384L14.8875 16.2303H20.9615V13H5.00029V16.2303H11.0742V28.3384H14.8647Z" fill="#002A55"/>
<path fill-rule="evenodd" clip-rule="evenodd" d="M92.5241 13H80.9014L80.8786 28.3159H84.6918V24.5659H92.5012C94.9902 24.5659 96.9995 22.5779 96.9995 20.1157V17.4501C97.0224 14.9878 95.013 13 92.5241 13V13ZM93.3005 21.4034H84.6918V16.2304H93.3005V21.4034Z" fill="#002A55"/>
<path fill-rule="evenodd" clip-rule="evenodd" d="M47.8602 28.3384H57.7473V25.1081H47.1751V16.2303H57.7473V13H47.8602C45.3712 13 43.3618 14.9879 43.3618 17.4501V23.8882C43.3618 26.3506 45.3713 28.3384 47.8602 28.3384Z" fill="#002A55"/>
<path fill-rule="evenodd" clip-rule="evenodd" d="M33.642 28.3159L41.8523 13H37.9415L32.9363 22.3368L27.3827 13H23.4718L29.4527 23.2247C29.9318 24.0437 30.797 24.5462 31.7318 24.5485L31.7508 24.5486L29.7312 28.3159H33.642V28.3159Z" fill="#002A55"/>
<path fill-rule="evenodd" clip-rule="evenodd" d="M68.4463 24.5485L68.4653 24.5486L66.4458 28.3159H70.3566L78.5668 13.0001H74.656L69.6508 22.3369L64.0973 13.0001H60.1865L66.1673 23.2248C66.6464 24.0438 67.5115 24.5463 68.4463 24.5486V24.5485Z" fill="#002A55"/>
</g>
</g>
<defs>
<clipPath id="clip0_8_2">
<rect width="250" height="150" fill="white"/>
</clipPath>
<clipPath id="clip1_8_2">
<rect width="92" height="25" fill="white" transform="translate(5 13)"/>
</clipPath>
</defs>
</svg>
