<svg width="57" height="45" viewBox="0 0 57 45" fill="none" xmlns="http://www.w3.org/2000/svg">
<path d="M7.77339 24.4111L10.4828 22.0222L28.6355 10.0778V17.4833L15.9015 34.6833L10.4828 32.5333L7.77339 24.4111Z" fill="#8AB4E2" stroke="#8AB4E2"/>
<path d="M51.3941 27.2778L31.3448 6.25555H28.6355V18.9167L44.0788 34.6833L51.3941 27.2778Z" fill="#93E1E5" stroke="#93E1E5"/>
<path d="M9.23646 34.2056L11.5665 33.0111L9.12809 23.2167L6.25616 23.6706L9.23646 34.2056Z" fill="#001C39"/>
<path d="M13.734 31.1478H12.2953L13.1921 26.5611L28.0936 12.7056L13.734 31.1478Z" fill="#001C39"/>
<path d="M35.4089 9.83889L36.4926 9.12222L37.5764 13.4222L49.1182 33.3217H47.3301L35.4089 14.8556V9.83889Z" fill="#001C39"/>
<path d="M36.7636 13.9V9.77024L56 29.6667L49.2266 33.0111L36.7636 13.9Z" fill="#2390FF"/>
<path d="M34.867 16.05L28.6355 15.5722V44L46.7882 34.2056L34.867 16.05Z" fill="#2390FF"/>
<path d="M32.4286 12.7056L32.9163 11.5111L27.2808 9.12222L22.6749 17.9611L28.0936 12.4667L32.4286 12.7056Z" fill="#2390FF"/>
<path d="M36.7636 13.9V9.77024L56 29.6667L49.2266 33.0111L36.7636 13.9Z" stroke="#2390FF"/>
<path d="M34.867 16.05L28.6355 15.5722V44L46.7882 34.2056L34.867 16.05Z" stroke="#2390FF"/>
<path d="M32.4286 12.7056L32.9163 11.5111L27.2808 9.12222L22.6749 17.9611L28.0936 12.4667L32.4286 12.7056Z" stroke="#2390FF"/>
<path d="M8.85714 21.3056L28.3645 1L32.9704 5.53889V11.2722L28.3645 10.7944L12.3793 30.6222L8.85714 21.3056Z" fill="#002A55"/>
<path d="M1 29.6667L6.14778 24.1722L8.85714 33.7278L1 29.6667Z" fill="#002A55"/>
<path d="M28.3645 43.7611L12.1084 35.6389L28.3645 16.05V43.7611Z" fill="#002A55"/>
<path d="M28.3645 1L8.85714 21.3056L12.3793 30.6222L28.3645 10.7944M28.3645 1V10.7944M28.3645 1L32.9704 5.53889V11.2722L28.3645 10.7944M6.14778 24.1722L1 29.6667L8.85714 33.7278L6.14778 24.1722ZM12.1084 35.6389L28.3645 43.7611V16.05L12.1084 35.6389Z" stroke="#002A55"/>
</svg>
